<mxfile host="app.diagrams.net" agent="Mozilla/5.0 (X11; Ubuntu; Linux x86_64; rv:135.0) Gecko/20100101 Firefox/135.0" version="26.0.16">
  <diagram name="Page-1" id="YYvOcuvJlGanwff1w4KF">
    <mxGraphModel dx="1190" dy="687" grid="1" gridSize="8" guides="1" tooltips="1" connect="1" arrows="1" fold="1" page="1" pageScale="1" pageWidth="1100" pageHeight="1700" math="0" shadow="0">
      <root>
        <mxCell id="0" />
        <mxCell id="1" parent="0" />
        <mxCell id="335l0VnZli1X-sv9pP9R-2" value="&lt;div style=&quot;font-size: 19px;&quot;&gt;&lt;font style=&quot;font-size: 19px;&quot; color=&quot;#cc0000&quot;&gt;Processeur&lt;/font&gt;&lt;/div&gt;&lt;div style=&quot;font-size: 19px;&quot;&gt;&lt;font style=&quot;font-size: 19px;&quot; color=&quot;#cc0000&quot;&gt;STM32G474RET6&lt;/font&gt;&lt;font style=&quot;font-size: 19px;&quot; color=&quot;#cc0000&quot;&gt;&lt;br&gt;&lt;/font&gt;&lt;/div&gt;" style="rounded=1;whiteSpace=wrap;html=1;strokeColor=#CC0000;" parent="1" vertex="1">
          <mxGeometry x="263" y="112" width="177" height="104" as="geometry" />
        </mxCell>
        <mxCell id="335l0VnZli1X-sv9pP9R-5" value="TOF.h" style="rounded=1;whiteSpace=wrap;html=1;" parent="1" vertex="1">
          <mxGeometry x="146" y="270" width="80" height="40" as="geometry" />
        </mxCell>
        <mxCell id="335l0VnZli1X-sv9pP9R-6" value="TOF.c" style="rounded=1;whiteSpace=wrap;html=1;" parent="1" vertex="1">
          <mxGeometry x="146" y="330" width="80" height="40" as="geometry" />
        </mxCell>
        <mxCell id="335l0VnZli1X-sv9pP9R-7" value="&lt;font color=&quot;#0000cc&quot;&gt;TOF&lt;/font&gt;" style="rounded=0;whiteSpace=wrap;html=1;strokeColor=#0000CC;" parent="1" vertex="1">
          <mxGeometry x="146" y="410" width="80" height="40" as="geometry" />
        </mxCell>
        <mxCell id="335l0VnZli1X-sv9pP9R-8" value="XL430.h" style="rounded=1;whiteSpace=wrap;html=1;" parent="1" vertex="1">
          <mxGeometry x="247" y="270" width="80" height="40" as="geometry" />
        </mxCell>
        <mxCell id="335l0VnZli1X-sv9pP9R-9" value="XL430.c" style="rounded=1;whiteSpace=wrap;html=1;" parent="1" vertex="1">
          <mxGeometry x="247" y="330" width="80" height="40" as="geometry" />
        </mxCell>
        <mxCell id="335l0VnZli1X-sv9pP9R-10" value="&lt;font color=&quot;#0000cc&quot;&gt;XL430 x6&lt;/font&gt;" style="rounded=0;whiteSpace=wrap;html=1;strokeColor=#0000CC;" parent="1" vertex="1">
          <mxGeometry x="247" y="410" width="80" height="40" as="geometry" />
        </mxCell>
        <mxCell id="335l0VnZli1X-sv9pP9R-11" value="Servo.h" style="rounded=1;whiteSpace=wrap;html=1;" parent="1" vertex="1">
          <mxGeometry x="350" y="270" width="80" height="40" as="geometry" />
        </mxCell>
        <mxCell id="335l0VnZli1X-sv9pP9R-12" value="Servo.c" style="rounded=1;whiteSpace=wrap;html=1;" parent="1" vertex="1">
          <mxGeometry x="350" y="330" width="80" height="40" as="geometry" />
        </mxCell>
        <mxCell id="335l0VnZli1X-sv9pP9R-13" value="&lt;font color=&quot;#0000cc&quot;&gt;Servos x6&lt;/font&gt;" style="rounded=0;whiteSpace=wrap;html=1;strokeColor=#0000CC;" parent="1" vertex="1">
          <mxGeometry x="350" y="410" width="80" height="40" as="geometry" />
        </mxCell>
        <mxCell id="335l0VnZli1X-sv9pP9R-14" value="Neopixel.h" style="rounded=1;whiteSpace=wrap;html=1;" parent="1" vertex="1">
          <mxGeometry x="454" y="270" width="80" height="40" as="geometry" />
        </mxCell>
        <mxCell id="335l0VnZli1X-sv9pP9R-15" value="Neopixel.c" style="rounded=1;whiteSpace=wrap;html=1;" parent="1" vertex="1">
          <mxGeometry x="454" y="330" width="80" height="40" as="geometry" />
        </mxCell>
        <mxCell id="335l0VnZli1X-sv9pP9R-16" value="&lt;div style=&quot;font-size: 11px;&quot;&gt;&lt;font style=&quot;font-size: 11px;&quot; color=&quot;#0000cc&quot;&gt;Ruban neopixel&lt;/font&gt;&lt;/div&gt;&lt;div style=&quot;font-size: 11px;&quot;&gt;&lt;font style=&quot;font-size: 11px;&quot; color=&quot;#0000cc&quot;&gt;+ yeux&lt;/font&gt;&lt;font style=&quot;font-size: 11px;&quot;&gt;&lt;br&gt;&lt;/font&gt;&lt;/div&gt;" style="rounded=0;whiteSpace=wrap;html=1;strokeColor=#0000CC;" parent="1" vertex="1">
          <mxGeometry x="454" y="410" width="80" height="40" as="geometry" />
        </mxCell>
        <mxCell id="335l0VnZli1X-sv9pP9R-17" value="MP3.h" style="rounded=1;whiteSpace=wrap;html=1;" parent="1" vertex="1">
          <mxGeometry x="557" y="270" width="80" height="40" as="geometry" />
        </mxCell>
        <mxCell id="335l0VnZli1X-sv9pP9R-18" value="MP3.c" style="rounded=1;whiteSpace=wrap;html=1;" parent="1" vertex="1">
          <mxGeometry x="557" y="330" width="80" height="40" as="geometry" />
        </mxCell>
        <mxCell id="335l0VnZli1X-sv9pP9R-19" value="&lt;div&gt;&lt;font color=&quot;#0000cc&quot;&gt;Module MP3&lt;/font&gt;&lt;/div&gt;&lt;div&gt;&lt;font color=&quot;#0000cc&quot;&gt;+ microSD&lt;/font&gt;&lt;br&gt;&lt;/div&gt;" style="rounded=0;whiteSpace=wrap;html=1;strokeColor=#0000CC;" parent="1" vertex="1">
          <mxGeometry x="557" y="410" width="80" height="40" as="geometry" />
        </mxCell>
        <mxCell id="335l0VnZli1X-sv9pP9R-21" value="" style="endArrow=classic;html=1;rounded=0;entryX=0.5;entryY=0;entryDx=0;entryDy=0;exitX=0.127;exitY=1;exitDx=0;exitDy=0;exitPerimeter=0;" parent="1" source="335l0VnZli1X-sv9pP9R-2" target="335l0VnZli1X-sv9pP9R-5" edge="1">
          <mxGeometry width="50" height="50" relative="1" as="geometry">
            <mxPoint x="460" y="320" as="sourcePoint" />
            <mxPoint x="510" y="270" as="targetPoint" />
          </mxGeometry>
        </mxCell>
        <mxCell id="335l0VnZli1X-sv9pP9R-22" value="" style="endArrow=classic;html=1;rounded=0;entryX=0.5;entryY=0;entryDx=0;entryDy=0;exitX=0.25;exitY=1;exitDx=0;exitDy=0;" parent="1" source="335l0VnZli1X-sv9pP9R-2" target="335l0VnZli1X-sv9pP9R-8" edge="1">
          <mxGeometry width="50" height="50" relative="1" as="geometry">
            <mxPoint x="350" y="220" as="sourcePoint" />
            <mxPoint x="510" y="270" as="targetPoint" />
          </mxGeometry>
        </mxCell>
        <mxCell id="335l0VnZli1X-sv9pP9R-23" value="" style="endArrow=classic;html=1;rounded=0;entryX=0.5;entryY=0;entryDx=0;entryDy=0;exitX=0.5;exitY=1;exitDx=0;exitDy=0;" parent="1" source="335l0VnZli1X-sv9pP9R-2" target="335l0VnZli1X-sv9pP9R-11" edge="1">
          <mxGeometry width="50" height="50" relative="1" as="geometry">
            <mxPoint x="460" y="320" as="sourcePoint" />
            <mxPoint x="510" y="270" as="targetPoint" />
          </mxGeometry>
        </mxCell>
        <mxCell id="335l0VnZli1X-sv9pP9R-24" value="" style="endArrow=classic;html=1;rounded=0;entryX=0.5;entryY=0;entryDx=0;entryDy=0;exitX=0.75;exitY=1;exitDx=0;exitDy=0;" parent="1" source="335l0VnZli1X-sv9pP9R-2" target="335l0VnZli1X-sv9pP9R-14" edge="1">
          <mxGeometry width="50" height="50" relative="1" as="geometry">
            <mxPoint x="460" y="320" as="sourcePoint" />
            <mxPoint x="510" y="270" as="targetPoint" />
          </mxGeometry>
        </mxCell>
        <mxCell id="335l0VnZli1X-sv9pP9R-25" value="" style="endArrow=classic;html=1;rounded=0;entryX=0.5;entryY=0;entryDx=0;entryDy=0;exitX=0.895;exitY=1.007;exitDx=0;exitDy=0;exitPerimeter=0;" parent="1" source="335l0VnZli1X-sv9pP9R-2" target="335l0VnZli1X-sv9pP9R-17" edge="1">
          <mxGeometry width="50" height="50" relative="1" as="geometry">
            <mxPoint x="460" y="320" as="sourcePoint" />
            <mxPoint x="510" y="270" as="targetPoint" />
          </mxGeometry>
        </mxCell>
        <mxCell id="335l0VnZli1X-sv9pP9R-26" value="" style="endArrow=classic;html=1;rounded=0;entryX=0.5;entryY=0;entryDx=0;entryDy=0;exitX=0.5;exitY=1;exitDx=0;exitDy=0;" parent="1" source="335l0VnZli1X-sv9pP9R-5" target="335l0VnZli1X-sv9pP9R-6" edge="1">
          <mxGeometry width="50" height="50" relative="1" as="geometry">
            <mxPoint x="446" y="340" as="sourcePoint" />
            <mxPoint x="496" y="290" as="targetPoint" />
          </mxGeometry>
        </mxCell>
        <mxCell id="335l0VnZli1X-sv9pP9R-27" value="" style="endArrow=classic;html=1;rounded=0;entryX=0.5;entryY=0;entryDx=0;entryDy=0;exitX=0.5;exitY=1;exitDx=0;exitDy=0;" parent="1" edge="1">
          <mxGeometry width="50" height="50" relative="1" as="geometry">
            <mxPoint x="286.84000000000003" y="310" as="sourcePoint" />
            <mxPoint x="286.84000000000003" y="330" as="targetPoint" />
          </mxGeometry>
        </mxCell>
        <mxCell id="335l0VnZli1X-sv9pP9R-28" value="" style="endArrow=classic;html=1;rounded=0;entryX=0.5;entryY=0;entryDx=0;entryDy=0;exitX=0.5;exitY=1;exitDx=0;exitDy=0;" parent="1" edge="1">
          <mxGeometry width="50" height="50" relative="1" as="geometry">
            <mxPoint x="389.84000000000003" y="310" as="sourcePoint" />
            <mxPoint x="389.84000000000003" y="330" as="targetPoint" />
          </mxGeometry>
        </mxCell>
        <mxCell id="335l0VnZli1X-sv9pP9R-29" value="" style="endArrow=classic;html=1;rounded=0;entryX=0.5;entryY=0;entryDx=0;entryDy=0;exitX=0.5;exitY=1;exitDx=0;exitDy=0;" parent="1" edge="1">
          <mxGeometry width="50" height="50" relative="1" as="geometry">
            <mxPoint x="493.84" y="310" as="sourcePoint" />
            <mxPoint x="493.84" y="330" as="targetPoint" />
          </mxGeometry>
        </mxCell>
        <mxCell id="335l0VnZli1X-sv9pP9R-30" value="" style="endArrow=classic;html=1;rounded=0;entryX=0.5;entryY=0;entryDx=0;entryDy=0;exitX=0.5;exitY=1;exitDx=0;exitDy=0;" parent="1" edge="1">
          <mxGeometry width="50" height="50" relative="1" as="geometry">
            <mxPoint x="596.8399999999999" y="310" as="sourcePoint" />
            <mxPoint x="596.8399999999999" y="330" as="targetPoint" />
          </mxGeometry>
        </mxCell>
        <mxCell id="335l0VnZli1X-sv9pP9R-31" value="" style="endArrow=classic;html=1;rounded=0;entryX=0.5;entryY=0;entryDx=0;entryDy=0;exitX=0.5;exitY=1;exitDx=0;exitDy=0;strokeColor=#0000CC;" parent="1" source="335l0VnZli1X-sv9pP9R-6" edge="1">
          <mxGeometry width="50" height="50" relative="1" as="geometry">
            <mxPoint x="185.84" y="390" as="sourcePoint" />
            <mxPoint x="185.84" y="410" as="targetPoint" />
          </mxGeometry>
        </mxCell>
        <mxCell id="335l0VnZli1X-sv9pP9R-32" value="" style="endArrow=classic;html=1;rounded=0;entryX=0.5;entryY=0;entryDx=0;entryDy=0;exitX=0.5;exitY=1;exitDx=0;exitDy=0;strokeColor=#0000CC;" parent="1" edge="1">
          <mxGeometry width="50" height="50" relative="1" as="geometry">
            <mxPoint x="287" y="370" as="sourcePoint" />
            <mxPoint x="286.84000000000003" y="410" as="targetPoint" />
          </mxGeometry>
        </mxCell>
        <mxCell id="335l0VnZli1X-sv9pP9R-33" value="" style="endArrow=classic;html=1;rounded=0;entryX=0.5;entryY=0;entryDx=0;entryDy=0;exitX=0.5;exitY=1;exitDx=0;exitDy=0;strokeColor=#0000CC;" parent="1" edge="1">
          <mxGeometry width="50" height="50" relative="1" as="geometry">
            <mxPoint x="390" y="370" as="sourcePoint" />
            <mxPoint x="389.84000000000003" y="410" as="targetPoint" />
          </mxGeometry>
        </mxCell>
        <mxCell id="335l0VnZli1X-sv9pP9R-34" value="" style="endArrow=classic;html=1;rounded=0;entryX=0.5;entryY=0;entryDx=0;entryDy=0;exitX=0.5;exitY=1;exitDx=0;exitDy=0;strokeColor=#0000CC;" parent="1" edge="1">
          <mxGeometry width="50" height="50" relative="1" as="geometry">
            <mxPoint x="494" y="370" as="sourcePoint" />
            <mxPoint x="493.84000000000003" y="410" as="targetPoint" />
          </mxGeometry>
        </mxCell>
        <mxCell id="335l0VnZli1X-sv9pP9R-35" value="" style="endArrow=classic;html=1;rounded=0;entryX=0.5;entryY=0;entryDx=0;entryDy=0;exitX=0.5;exitY=1;exitDx=0;exitDy=0;strokeColor=#0000CC;" parent="1" edge="1">
          <mxGeometry width="50" height="50" relative="1" as="geometry">
            <mxPoint x="597" y="370" as="sourcePoint" />
            <mxPoint x="596.84" y="410" as="targetPoint" />
          </mxGeometry>
        </mxCell>
        <mxCell id="335l0VnZli1X-sv9pP9R-36" value="&lt;font color=&quot;#0000cc&quot;&gt;I²C&lt;/font&gt;" style="text;html=1;align=center;verticalAlign=middle;whiteSpace=wrap;rounded=0;" parent="1" vertex="1">
          <mxGeometry x="180" y="376" width="40" height="20" as="geometry" />
        </mxCell>
        <mxCell id="335l0VnZli1X-sv9pP9R-37" value="&lt;font color=&quot;#0000cc&quot;&gt;USART&lt;/font&gt;" style="text;html=1;align=center;verticalAlign=middle;whiteSpace=wrap;rounded=0;" parent="1" vertex="1">
          <mxGeometry x="292" y="376" width="40" height="20" as="geometry" />
        </mxCell>
        <mxCell id="335l0VnZli1X-sv9pP9R-38" value="&lt;font color=&quot;#0000cc&quot;&gt;PWM x6&lt;/font&gt;" style="text;html=1;align=center;verticalAlign=middle;whiteSpace=wrap;rounded=0;" parent="1" vertex="1">
          <mxGeometry x="392" y="376" width="48" height="20" as="geometry" />
        </mxCell>
        <mxCell id="335l0VnZli1X-sv9pP9R-40" value="&lt;font color=&quot;#0000cc&quot;&gt;PWM&lt;/font&gt;" style="text;html=1;align=center;verticalAlign=middle;whiteSpace=wrap;rounded=0;" parent="1" vertex="1">
          <mxGeometry x="488" y="376" width="48" height="20" as="geometry" />
        </mxCell>
        <mxCell id="335l0VnZli1X-sv9pP9R-41" value="&lt;font color=&quot;#0000cc&quot;&gt;USART&lt;/font&gt;" style="text;html=1;align=center;verticalAlign=middle;whiteSpace=wrap;rounded=0;" parent="1" vertex="1">
          <mxGeometry x="599" y="376" width="48" height="20" as="geometry" />
        </mxCell>
        <mxCell id="iYoyCgassoTn2LvYQuii-1" value="&lt;div style=&quot;font-size: 19px;&quot;&gt;&lt;font style=&quot;font-size: 19px;&quot; color=&quot;#cc0000&quot;&gt;Processeur&lt;/font&gt;&lt;/div&gt;&lt;div style=&quot;font-size: 19px;&quot;&gt;&lt;font style=&quot;font-size: 19px;&quot; color=&quot;#cc0000&quot;&gt;STM32G431KBT6&lt;/font&gt;&lt;font style=&quot;font-size: 19px;&quot; color=&quot;#cc0000&quot;&gt;&lt;br&gt;&lt;/font&gt;&lt;/div&gt;" style="rounded=1;whiteSpace=wrap;html=1;strokeColor=#CC0000;" vertex="1" parent="1">
          <mxGeometry x="680" y="112" width="177" height="104" as="geometry" />
        </mxCell>
        <mxCell id="iYoyCgassoTn2LvYQuii-2" value="&lt;font color=&quot;#0000cc&quot;&gt;Module HC05&lt;/font&gt;" style="rounded=0;whiteSpace=wrap;html=1;strokeColor=#0000CC;" vertex="1" parent="1">
          <mxGeometry x="519" y="112" width="80" height="40" as="geometry" />
        </mxCell>
        <mxCell id="iYoyCgassoTn2LvYQuii-3" value="" style="endArrow=classic;html=1;rounded=0;exitX=1;exitY=0.5;exitDx=0;exitDy=0;entryX=-0.001;entryY=0.192;entryDx=0;entryDy=0;entryPerimeter=0;strokeColor=#0000FF;" edge="1" parent="1" source="iYoyCgassoTn2LvYQuii-2" target="iYoyCgassoTn2LvYQuii-1">
          <mxGeometry width="50" height="50" relative="1" as="geometry">
            <mxPoint x="664" y="338" as="sourcePoint" />
            <mxPoint x="714" y="288" as="targetPoint" />
          </mxGeometry>
        </mxCell>
        <mxCell id="iYoyCgassoTn2LvYQuii-4" value="" style="endArrow=classic;html=1;rounded=0;exitX=0;exitY=0.5;exitDx=0;exitDy=0;strokeColor=#0000FF;entryX=1.002;entryY=0.194;entryDx=0;entryDy=0;entryPerimeter=0;" edge="1" parent="1" source="iYoyCgassoTn2LvYQuii-2" target="335l0VnZli1X-sv9pP9R-2">
          <mxGeometry width="50" height="50" relative="1" as="geometry">
            <mxPoint x="488" y="258" as="sourcePoint" />
            <mxPoint x="440" y="132" as="targetPoint" />
          </mxGeometry>
        </mxCell>
        <mxCell id="iYoyCgassoTn2LvYQuii-5" value="&lt;div&gt;bluetooth.h&lt;/div&gt;&lt;div&gt;bluetooth.c&lt;/div&gt;" style="rounded=1;whiteSpace=wrap;html=1;" vertex="1" parent="1">
          <mxGeometry x="519" y="176" width="80" height="40" as="geometry" />
        </mxCell>
        <mxCell id="iYoyCgassoTn2LvYQuii-7" value="" style="endArrow=classic;html=1;rounded=0;entryX=0;entryY=0.5;entryDx=0;entryDy=0;exitX=1.002;exitY=0.81;exitDx=0;exitDy=0;exitPerimeter=0;" edge="1" parent="1" source="335l0VnZli1X-sv9pP9R-2" target="iYoyCgassoTn2LvYQuii-5">
          <mxGeometry width="50" height="50" relative="1" as="geometry">
            <mxPoint x="441" y="200" as="sourcePoint" />
            <mxPoint x="570" y="144" as="targetPoint" />
          </mxGeometry>
        </mxCell>
        <mxCell id="iYoyCgassoTn2LvYQuii-8" value="" style="endArrow=classic;html=1;rounded=0;entryX=1;entryY=0.5;entryDx=0;entryDy=0;exitX=-0.003;exitY=0.811;exitDx=0;exitDy=0;exitPerimeter=0;" edge="1" parent="1" source="iYoyCgassoTn2LvYQuii-1" target="iYoyCgassoTn2LvYQuii-5">
          <mxGeometry width="50" height="50" relative="1" as="geometry">
            <mxPoint x="688" y="224" as="sourcePoint" />
            <mxPoint x="642" y="168" as="targetPoint" />
          </mxGeometry>
        </mxCell>
        <mxCell id="iYoyCgassoTn2LvYQuii-9" value="" style="endArrow=classic;html=1;rounded=0;entryX=0.5;entryY=1;entryDx=0;entryDy=0;exitX=0.5;exitY=0;exitDx=0;exitDy=0;" edge="1" parent="1" source="iYoyCgassoTn2LvYQuii-5" target="iYoyCgassoTn2LvYQuii-2">
          <mxGeometry width="50" height="50" relative="1" as="geometry">
            <mxPoint x="584" y="210" as="sourcePoint" />
            <mxPoint x="634" y="160" as="targetPoint" />
          </mxGeometry>
        </mxCell>
      </root>
    </mxGraphModel>
  </diagram>
</mxfile>
